<?xml version="1.0" encoding="utf-8"?>
<!-- Generator: Adobe Illustrator 26.3.1, SVG Export Plug-In . SVG Version: 6.00 Build 0)  -->
<svg version="1.1" id="Layer_1" xmlns="http://www.w3.org/2000/svg" xmlns:xlink="http://www.w3.org/1999/xlink" x="0px" y="0px"
	 viewBox="0 0 324.6 165" style="enable-background:new 0 0 324.6 165;" xml:space="preserve">
<style type="text/css">
	.st0{fill:#FFFFFF;}
	.st1{fill:#9B886E;}
</style>
<path d="M168.4,99.2H126c-7.1,0-12.8-5.7-12.8-12.8V73.9c0-18.7,15.2-33.9,33.9-33.9c18.7,0,33.9,15.2,33.9,33.9v12.5
	C181.1,93.5,175.4,99.2,168.4,99.2z M157.1,74.7c0-5.4-4.4-9.8-9.8-9.8c-5.4,0-9.8,4.4-9.8,9.8H157.1z"/>
<path d="M179.1,108l-20.2,0c-1,0-1.8,0.7-2,1.6c-0.8,4.7-4.8,8.3-9.7,8.3h0c-5.4,0-9.8-4.4-9.8-9.8v0l-22.1,0c-1.2,0-2.1,1-2,2.1
	c1.1,17.7,15.9,31.8,33.9,31.8c18,0,32.8-14.1,33.9-31.8C181.2,109,180.3,108,179.1,108z"/>
<path d="M311.8,99.2h-42.3c-7.1,0-12.8-5.7-12.8-12.8V73.9c0-18.7,15.2-33.9,33.9-33.9c18.7,0,33.9,15.2,33.9,33.9v12.5
	C324.6,93.5,318.9,99.2,311.8,99.2z M300.5,74.7c0-5.4-4.4-9.8-9.8-9.8c-5.4,0-9.8,4.4-9.8,9.8H300.5z"/>
<path d="M236.2,40L219,74.7L201.9,40H236.2 M300.5,0h-163L219,165L300.5,0L300.5,0z"/>
<path d="M322.6,108h-20.2c-1,0-1.8,0.7-2,1.6c-0.8,4.7-4.8,8.3-9.7,8.3c0,0,0,0-0.1,0c0,0,0,0-0.1,0c-4.9,0-9-3.6-9.7-8.3
	c-0.2-0.9-1-1.6-2-1.6h-20.2c-1.2,0-2.1,1-2,2.1c1.1,17.7,15.9,31.8,33.9,31.8c0,0,0,0,0.1,0s0,0,0.1,0c18,0,32.8-14.1,33.9-31.8
	C324.7,109,323.7,108,322.6,108z"/>
<path d="M40,0v17.8C40,30.1,49.9,40,62.2,40h35.2v85H66.1C51.7,125,40,113.3,40,98.9V80H0v18.9C0,135.4,29.6,165,66.1,165h71.2V0H40
	z"/>
<path d="M207.9-459h-42.3c-7.1,0-12.8-5.7-12.8-12.8v-12.5c0-18.7,15.2-33.9,33.9-33.9c18.7,0,33.9,15.2,33.9,33.9v12.5
	C220.7-464.7,215-459,207.9-459z M196.6-483.5c0-5.4-4.4-9.8-9.8-9.8c-5.4,0-9.8,4.4-9.8,9.8H196.6z"/>
<path d="M218.7-450.2h-20.2c-1,0-1.8,0.7-2,1.6c-0.8,4.7-4.8,8.3-9.7,8.3h0c-5.4,0-9.8-4.4-9.8-9.8v0h-22.1c-1.2,0-2.1,1-2,2.1
	c1.1,17.7,15.9,31.8,33.9,31.8c18,0,32.8-14.1,33.9-31.8C220.8-449.2,219.9-450.2,218.7-450.2z"/>
<path d="M351.4-459h-42.3c-7.1,0-12.8-5.7-12.8-12.8v-12.5c0-18.7,15.2-33.9,33.9-33.9c18.7,0,33.9,15.2,33.9,33.9v12.5
	C364.2-464.7,358.5-459,351.4-459z M340.1-483.5c0-5.4-4.4-9.8-9.8-9.8c-5.4,0-9.8,4.4-9.8,9.8H340.1z"/>
<path d="M275.7-518.2l-17.1,34.7l-17.1-34.7H275.7 M340.1-558.2h-163l81.5,165L340.1-558.2L340.1-558.2z"/>
<path d="M362.2-450.2h-20.2c-1,0-1.8,0.7-2,1.6c-0.8,4.7-4.8,8.3-9.7,8.3c0,0,0,0-0.1,0c0,0,0,0-0.1,0c-4.9,0-9-3.6-9.7-8.3
	c-0.2-0.9-1-1.6-2-1.6h-20.2c-1.2,0-2.1,1-2,2.1c1.1,17.7,15.9,31.8,33.9,31.8c0,0,0,0,0.1,0s0,0,0.1,0c18,0,32.8-14.1,33.9-31.8
	C364.2-449.2,363.3-450.2,362.2-450.2z"/>
<path d="M79.6-558.2v17.8c0,12.2,9.9,22.2,22.2,22.2h35.2v85h-31.2c-14.4,0-26.1-11.7-26.1-26.1v-18.9h-40v18.9
	c0,36.5,29.6,66.1,66.1,66.1h71.2v-165H79.6z"/>
<path class="st0" d="M608.2-459h-42.3c-7.1,0-12.8-5.7-12.8-12.8v-12.5c0-18.7,15.2-33.9,33.9-33.9c18.7,0,33.9,15.2,33.9,33.9v12.5
	C620.9-464.7,615.2-459,608.2-459z M596.8-483.5c0-5.4-4.4-9.8-9.8-9.8c-5.4,0-9.8,4.4-9.8,9.8H596.8z"/>
<path class="st0" d="M618.9-450.2h-20.2c-1,0-1.8,0.7-2,1.6c-0.8,4.7-4.8,8.3-9.7,8.3h0c-5.4,0-9.8-4.4-9.8-9.8v0h-22.1
	c-1.2,0-2.1,1-2,2.1c1.1,17.7,15.9,31.8,33.9,31.8c18,0,32.8-14.1,33.9-31.8C621-449.2,620.1-450.2,618.9-450.2z"/>
<path class="st0" d="M751.6-459h-42.3c-7.1,0-12.8-5.7-12.8-12.8v-12.5c0-18.7,15.2-33.9,33.9-33.9c18.7,0,33.9,15.2,33.9,33.9v12.5
	C764.4-464.7,758.7-459,751.6-459z M740.3-483.5c0-5.4-4.4-9.8-9.8-9.8c-5.4,0-9.8,4.4-9.8,9.8H740.3z"/>
<path class="st0" d="M675.9-518.2l-17.1,34.7l-17.1-34.7H675.9 M740.3-558.2h-163l81.5,165L740.3-558.2L740.3-558.2z"/>
<path class="st0" d="M762.4-450.2h-20.2c-1,0-1.8,0.7-2,1.6c-0.8,4.7-4.8,8.3-9.7,8.3c0,0,0,0-0.1,0c0,0,0,0-0.1,0
	c-4.9,0-9-3.6-9.7-8.3c-0.2-0.9-1-1.6-2-1.6h-20.2c-1.2,0-2.1,1-2,2.1c1.1,17.7,15.9,31.8,33.9,31.8c0,0,0,0,0.1,0s0,0,0.1,0
	c18,0,32.8-14.1,33.9-31.8C764.5-449.2,763.5-450.2,762.4-450.2z"/>
<path class="st0" d="M479.8-558.2v17.8c0,12.2,9.9,22.2,22.2,22.2h35.2v85h-31.2c-14.4,0-26.1-11.7-26.1-26.1v-18.9h-40v18.9
	c0,36.5,29.6,66.1,66.1,66.1h71.2v-165H479.8z"/>
<path class="st1" d="M1008.4-459H966c-7.1,0-12.8-5.7-12.8-12.8v-12.5c0-18.7,15.2-33.9,33.9-33.9c18.7,0,33.9,15.2,33.9,33.9v12.5
	C1021.1-464.7,1015.4-459,1008.4-459z M997-483.5c0-5.4-4.4-9.8-9.8-9.8c-5.4,0-9.8,4.4-9.8,9.8H997z"/>
<path class="st1" d="M1019.1-450.2h-20.2c-1,0-1.8,0.7-2,1.6c-0.8,4.7-4.8,8.3-9.7,8.3h0c-5.4,0-9.8-4.4-9.8-9.8v0h-22.1
	c-1.2,0-2.1,1-2,2.1c1.1,17.7,15.9,31.8,33.9,31.8c18,0,32.8-14.1,33.9-31.8C1021.2-449.2,1020.3-450.2,1019.1-450.2z"/>
<path class="st1" d="M1151.8-459h-42.3c-7.1,0-12.8-5.7-12.8-12.8v-12.5c0-18.7,15.2-33.9,33.9-33.9c18.7,0,33.9,15.2,33.9,33.9
	v12.5C1164.6-464.7,1158.9-459,1151.8-459z M1140.5-483.5c0-5.4-4.4-9.8-9.8-9.8c-5.4,0-9.8,4.4-9.8,9.8H1140.5z"/>
<path class="st1" d="M1076.2-518.2l-17.1,34.7l-17.1-34.7H1076.2 M1140.5-558.2h-163l81.5,165L1140.5-558.2L1140.5-558.2z"/>
<path class="st1" d="M1162.6-450.2h-20.2c-1,0-1.8,0.7-2,1.6c-0.8,4.7-4.8,8.3-9.7,8.3c0,0,0,0-0.1,0c0,0,0,0-0.1,0
	c-4.9,0-9-3.6-9.7-8.3c-0.2-0.9-1-1.6-2-1.6h-20.2c-1.2,0-2.1,1-2,2.1c1.1,17.7,15.9,31.8,33.9,31.8c0,0,0,0,0.1,0s0,0,0.1,0
	c18,0,32.8-14.1,33.9-31.8C1164.7-449.2,1163.7-450.2,1162.6-450.2z"/>
<path class="st1" d="M880-558.2v17.8c0,12.2,9.9,22.2,22.2,22.2h35.2v85h-31.2c-14.4,0-26.1-11.7-26.1-26.1v-18.9h-40v18.9
	c0,36.5,29.6,66.1,66.1,66.1h71.2v-165H880z"/>
</svg>
