<?xml version="1.0" encoding="utf-8"?>
<!-- Generator: Adobe Illustrator 26.3.1, SVG Export Plug-In . SVG Version: 6.00 Build 0)  -->
<svg version="1.1" id="Layer_1" xmlns="http://www.w3.org/2000/svg" xmlns:xlink="http://www.w3.org/1999/xlink" x="0px" y="0px"
	 viewBox="0 0 181.1 165" style="enable-background:new 0 0 181.1 165;" xml:space="preserve">
<style type="text/css">
	.st0{fill:#FFFFFF;}
	.st1{fill:#9B886E;}
</style>
<rect width="181.1" height="165"/>
<path class="st0" d="M168.4,99.2H126c-7.1,0-12.8-5.7-12.8-12.8V73.9c0-18.7,15.2-33.9,33.9-33.9c18.7,0,33.9,15.2,33.9,33.9v12.5
	C181.1,93.5,175.4,99.2,168.4,99.2z M157.1,74.7c0-5.4-4.4-9.8-9.8-9.8c-5.4,0-9.8,4.4-9.8,9.8H157.1z"/>
<path class="st0" d="M179.1,108l-20.2,0c-1,0-1.8,0.7-2,1.6c-0.8,4.7-4.8,8.3-9.7,8.3h0c-5.4,0-9.8-4.4-9.8-9.8v0l-22.1,0
	c-1.2,0-2.1,1-2,2.1c1.1,17.7,15.9,31.8,33.9,31.8c18,0,32.8-14.1,33.9-31.8C181.2,109,180.3,108,179.1,108z"/>
<path class="st0" d="M40,0v17.8C40,30.1,49.9,40,62.2,40h35.2v85H66.1C51.7,125,40,113.3,40,98.9V80H0v18.9
	C0,135.4,29.6,165,66.1,165h71.2V0H40z"/>
<path d="M207.9-685.3h-42.3c-7.1,0-12.8-5.7-12.8-12.8v-12.5c0-18.7,15.2-33.9,33.9-33.9c18.7,0,33.9,15.2,33.9,33.9v12.5
	C220.7-691,215-685.3,207.9-685.3z M196.6-709.8c0-5.4-4.4-9.8-9.8-9.8c-5.4,0-9.8,4.4-9.8,9.8H196.6z"/>
<path d="M218.7-676.5h-20.2c-1,0-1.8,0.7-2,1.6c-0.8,4.7-4.8,8.3-9.7,8.3h0c-5.4,0-9.8-4.4-9.8-9.8v0h-22.1c-1.2,0-2.1,1-2,2.1
	c1.1,17.7,15.9,31.8,33.9,31.8c18,0,32.8-14.1,33.9-31.8C220.8-675.5,219.9-676.5,218.7-676.5z"/>
<path d="M351.4-685.3h-42.3c-7.1,0-12.8-5.7-12.8-12.8v-12.5c0-18.7,15.2-33.9,33.9-33.9c18.7,0,33.9,15.2,33.9,33.9v12.5
	C364.2-691,358.5-685.3,351.4-685.3z M340.1-709.8c0-5.4-4.4-9.8-9.8-9.8c-5.4,0-9.8,4.4-9.8,9.8H340.1z"/>
<path d="M275.7-744.5l-17.1,34.7l-17.1-34.7H275.7 M340.1-784.5h-163l81.5,165L340.1-784.5L340.1-784.5z"/>
<path d="M362.2-676.5h-20.2c-1,0-1.8,0.7-2,1.6c-0.8,4.7-4.8,8.3-9.7,8.3c0,0,0,0-0.1,0c0,0,0,0-0.1,0c-4.9,0-9-3.6-9.7-8.3
	c-0.2-0.9-1-1.6-2-1.6h-20.2c-1.2,0-2.1,1-2,2.1c1.1,17.7,15.9,31.8,33.9,31.8c0,0,0,0,0.1,0s0,0,0.1,0c18,0,32.8-14.1,33.9-31.8
	C364.2-675.5,363.3-676.5,362.2-676.5z"/>
<path d="M79.6-784.5v17.8c0,12.2,9.9,22.2,22.2,22.2h35.2v85h-31.2c-14.4,0-26.1-11.7-26.1-26.1v-18.9h-40v18.9
	c0,36.5,29.6,66.1,66.1,66.1h71.2v-165H79.6z"/>
<path class="st0" d="M608.2-685.3h-42.3c-7.1,0-12.8-5.7-12.8-12.8v-12.5c0-18.7,15.2-33.9,33.9-33.9c18.7,0,33.9,15.2,33.9,33.9
	v12.5C620.9-691,615.2-685.3,608.2-685.3z M596.8-709.8c0-5.4-4.4-9.8-9.8-9.8c-5.4,0-9.8,4.4-9.8,9.8H596.8z"/>
<path class="st0" d="M618.9-676.5h-20.2c-1,0-1.8,0.7-2,1.6c-0.8,4.7-4.8,8.3-9.7,8.3h0c-5.4,0-9.8-4.4-9.8-9.8v0h-22.1
	c-1.2,0-2.1,1-2,2.1c1.1,17.7,15.9,31.8,33.9,31.8c18,0,32.8-14.1,33.9-31.8C621-675.5,620.1-676.5,618.9-676.5z"/>
<path class="st0" d="M751.6-685.3h-42.3c-7.1,0-12.8-5.7-12.8-12.8v-12.5c0-18.7,15.2-33.9,33.9-33.9c18.7,0,33.9,15.2,33.9,33.9
	v12.5C764.4-691,758.7-685.3,751.6-685.3z M740.3-709.8c0-5.4-4.4-9.8-9.8-9.8c-5.4,0-9.8,4.4-9.8,9.8H740.3z"/>
<path class="st0" d="M675.9-744.5l-17.1,34.7l-17.1-34.7H675.9 M740.3-784.5h-163l81.5,165L740.3-784.5L740.3-784.5z"/>
<path class="st0" d="M762.4-676.5h-20.2c-1,0-1.8,0.7-2,1.6c-0.8,4.7-4.8,8.3-9.7,8.3c0,0,0,0-0.1,0c0,0,0,0-0.1,0
	c-4.9,0-9-3.6-9.7-8.3c-0.2-0.9-1-1.6-2-1.6h-20.2c-1.2,0-2.1,1-2,2.1c1.1,17.7,15.9,31.8,33.9,31.8c0,0,0,0,0.1,0s0,0,0.1,0
	c18,0,32.8-14.1,33.9-31.8C764.5-675.5,763.5-676.5,762.4-676.5z"/>
<path class="st0" d="M479.8-784.5v17.8c0,12.2,9.9,22.2,22.2,22.2h35.2v85h-31.2c-14.4,0-26.1-11.7-26.1-26.1v-18.9h-40v18.9
	c0,36.5,29.6,66.1,66.1,66.1h71.2v-165H479.8z"/>
<path class="st1" d="M1008.4-685.3H966c-7.1,0-12.8-5.7-12.8-12.8v-12.5c0-18.7,15.2-33.9,33.9-33.9c18.7,0,33.9,15.2,33.9,33.9
	v12.5C1021.1-691,1015.4-685.3,1008.4-685.3z M997-709.8c0-5.4-4.4-9.8-9.8-9.8c-5.4,0-9.8,4.4-9.8,9.8H997z"/>
<path class="st1" d="M1019.1-676.5h-20.2c-1,0-1.8,0.7-2,1.6c-0.8,4.7-4.8,8.3-9.7,8.3h0c-5.4,0-9.8-4.4-9.8-9.8v0h-22.1
	c-1.2,0-2.1,1-2,2.1c1.1,17.7,15.9,31.8,33.9,31.8c18,0,32.8-14.1,33.9-31.8C1021.2-675.5,1020.3-676.5,1019.1-676.5z"/>
<path class="st1" d="M1151.8-685.3h-42.3c-7.1,0-12.8-5.7-12.8-12.8v-12.5c0-18.7,15.2-33.9,33.9-33.9c18.7,0,33.9,15.2,33.9,33.9
	v12.5C1164.6-691,1158.9-685.3,1151.8-685.3z M1140.5-709.8c0-5.4-4.4-9.8-9.8-9.8c-5.4,0-9.8,4.4-9.8,9.8H1140.5z"/>
<path class="st1" d="M1076.2-744.5l-17.1,34.7l-17.1-34.7H1076.2 M1140.5-784.5h-163l81.5,165L1140.5-784.5L1140.5-784.5z"/>
<path class="st1" d="M1162.6-676.5h-20.2c-1,0-1.8,0.7-2,1.6c-0.8,4.7-4.8,8.3-9.7,8.3c0,0,0,0-0.1,0c0,0,0,0-0.1,0
	c-4.9,0-9-3.6-9.7-8.3c-0.2-0.9-1-1.6-2-1.6h-20.2c-1.2,0-2.1,1-2,2.1c1.1,17.7,15.9,31.8,33.9,31.8c0,0,0,0,0.1,0s0,0,0.1,0
	c18,0,32.8-14.1,33.9-31.8C1164.7-675.5,1163.7-676.5,1162.6-676.5z"/>
<path class="st1" d="M880-784.5v17.8c0,12.2,9.9,22.2,22.2,22.2h35.2v85h-31.2c-14.4,0-26.1-11.7-26.1-26.1v-18.9h-40v18.9
	c0,36.5,29.6,66.1,66.1,66.1h71.2v-165H880z"/>
</svg>
